<svg xmlns="http://www.w3.org/2000/svg" viewBox="0 0 784.54 108.16"><defs><style>.cls-1{fill:#1b1b1b;}</style></defs><title>Asset 4</title><g id="Layer_2" data-name="Layer 2"><g id="Layer_1-2" data-name="Layer 1"><path class="cls-1" d="M235.41,87.49a15.51,15.51,0,0,1-1.84-1.4,4.26,4.26,0,0,0-1.19-.79,4.27,4.27,0,0,1-.9-.5q-1.15-1-4.82-1.8a4,4,0,0,1-1.8.58,1.13,1.13,0,0,1-.72-.14L221.91,83a57.62,57.62,0,0,0-8.49-1.87.7.7,0,0,0-.36-.14l-.86.29-3.38-.65-1.8.22a4.35,4.35,0,0,1-1.22-.25,4.5,4.5,0,0,0-1.08-.25h-.14a4.2,4.2,0,0,1-1.37.65h-.14q-2.81-.5-3.24-.5h-.58l-1.15.36-1.22-.22-1.15.36-1.94-.14-.86.14-1.66-.5-1.15.5a3.1,3.1,0,0,1-.76-.25,2.84,2.84,0,0,0-1-.25,14.91,14.91,0,0,0-1.87.79,4.28,4.28,0,0,0-1.8-.29,5.13,5.13,0,0,1,.15-1.8,10.09,10.09,0,0,0,1.66-2.81,1.08,1.08,0,0,1-.14-.43c0-.29,0-.43.14-.43l.72-.58.58-1.51a2.41,2.41,0,0,0,.72-.76,7.76,7.76,0,0,1,.65-.9,7.84,7.84,0,0,0,.65-.9,4.26,4.26,0,0,0,.47-1.3,5.45,5.45,0,0,1,.32-1.12c.1-.19.24-.46.43-.79,0-.19-.17-.38-.5-.58a1.55,1.55,0,0,1-.65-.58q2.23-.43,2.52-1.33a6.07,6.07,0,0,1,1-1.84,6.59,6.59,0,0,0,1.08-2.12,9.86,9.86,0,0,1,1-2.3A32.92,32.92,0,0,0,197,56l2.38-5.83a7,7,0,0,0,.86-1.8v-1a1.76,1.76,0,0,0,.94-1.37v-.58l2.59-6a4.92,4.92,0,0,0,.87-1.94,8.7,8.7,0,0,1,.65-1.87,30.12,30.12,0,0,0,6.11-4.1L214.85,28a4.66,4.66,0,0,1,1.44-1.4,2.21,2.21,0,0,0,1.08-2q3.52-.65,3.52-2.37a.59.59,0,0,0-.14-.43,7,7,0,0,1-.14-.86q0-.58.93-.86l.79-.29h.36q.22-.07.43-1.94l1.29-.43c.19-.19.33-.29.43-.29a10.68,10.68,0,0,1,.61-2.23,3.48,3.48,0,0,0,.32-1.44,1.69,1.69,0,0,1,.14-.94q1.15-.29,1.15-.86,0-.14-.43-1.8l.86-2.74a6.69,6.69,0,0,0-2.05-5.36Q223.4,0,222.69,0a9.41,9.41,0,0,0-6,2q-2.55,2-2.55,3.6V6a1.12,1.12,0,0,1,.14.43q0,.65-.58.65h-.29a.59.59,0,0,0-.36-.22,2.32,2.32,0,0,0-2,1.51l-2.66,4.68-.43.22q-1.51.29-1.51.86l.29,2.23-.86.43q-1.58.58-2.23,4.39a5.3,5.3,0,0,0-2.95,4.89v.29l.29.72v.29a22.78,22.78,0,0,1-2.88,2.7q-.65.4-1.51,3.35a.93.93,0,0,0-.57.43,2.38,2.38,0,0,1,.14.58,11.59,11.59,0,0,1-1.26,2.41A5.22,5.22,0,0,1,192,39.48q-1.62.47-1.62.76l-.86,1.08a1.77,1.77,0,0,0-1.22,1,31.18,31.18,0,0,1-7,3.38A3.31,3.31,0,0,0,178.93,47q-.9,1.12-1.19,1.12l-1-.14-1.22.14a.86.86,0,0,1-.72-.4,3.67,3.67,0,0,0-1.87-.76l-1.37-.36h-.29a6.75,6.75,0,0,1-1.22.5q-1.23.15-3,2.12A5.87,5.87,0,0,0,165.23,53a.69.69,0,0,1-.16-.09.47.47,0,0,0-.28,0l-.16,0a16.59,16.59,0,0,0-2.22.89l-1.29.61-.79.38-.84.42c-2.25,1.15-4.57,2.55-8,4-6.22,2-8.21,1.54-14.4,4.28-3.06,1-6.2,2.44-9.11,3.64-1.11,1.31-3.88,1.43-5.3,2.7l-.81-.21a2.61,2.61,0,0,1-1.77.8v-.14c-.73.65-1.77.8-2.13,1.13V71.3l-1,.44.11-.25a13.25,13.25,0,0,1-4.3,1.82l.31.5c-3.12.45-3.76,2-6.64,2.2v-.15c-2.78,2.64-5.58.93-8.48,3.54.36-.33-.28-.21-.3-.36-1.51.73-3.16,1.42-2.79,2.5-1.15.4-1.05,0-1.35-.35.18.47-.74,1-1.62,1.38l.34-.33-2.5,1.09.83.7c-1.45.24-.74-1-2-.27l.28.73c-1.93.54-3.43-.17-5.45,0C75.77,86.89,68.35,91.72,60.86,93l-.51-.44c-.43-.76-1.5,1.9-2,1.25l-.68.66c-.28-.06-.82,0-.48-.37-.76.24-.73.38-1.18.82l-1-.21c-3.08.66-5.24,2.5-8.4,3.24a33.49,33.49,0,0,0-7.33,1.47c-2.66.74-5.36,1.47-7.37,1.87-2.82.81-6,.18-8.78-.88S17.75,98,15,97.33c-.1-.19-.63-.18-.68-.09a25.48,25.48,0,0,1-4.07-2.9l-.74-.66c-.49-.38-1-1-1.76-1.69A37.4,37.4,0,0,1,4,87.17a15,15,0,0,0-1.46-1.88c-.47-.42-.92-.61-1.35-.33S.37,86,.09,87.42A15.26,15.26,0,0,0,0,90.15c.07.54.15,1.14.27,1.8A18,18,0,0,0,.86,94L.62,94c1.67,3.2,3.39,4.89,5.8,5.71-.21.56.35,1,1,1.43s1.45.69,1.69,1.08l-.12,0a6.57,6.57,0,0,1,2.83,1.56,5.07,5.07,0,0,0,2.87,1.32.63.63,0,0,1-.71.17c.72.22,1.58.43,2.24.69s1.15.48,1.1.82l1.35.37,1.45.33a27.67,27.67,0,0,0,3,.52,19.11,19.11,0,0,0,2.8.09,7.3,7.3,0,0,0,2.12-.47l-.16.18c1.27-.69,1.63-.08,3-.47.08.08.18.12.16.16,1.32-.75,3.92-.36,5-.83l.13.43c.88-.14,1.75-.31,2.62-.5l-1,.07c.13-1.26,2.12.44,3.85-.75,1.81-.25,2.89-3.29,4.76-3.21.67-.79-.48,1.11.64.33.22.6-.47.55,0,.95,1.14-.64,2.2,0,3.58-.85l.21.45c1.67-1.49,3.89-.6,4.88-1.87,1.84-1.08,1.83.92,3.55-.74l1,.34c.91-.22.34-1,1.42-1,.09.42,1.34-.13.91.46,2.41-.18,4.11-2.5,7.37-2.5.34-1,2-1.07,2.21-1.82.2.31,2.92-1,1.56.32-.12.11-.37.19-.4.05l0,.53c2,.27,2.81-1.57,4.48-2-.54,0-1.16.3-.85-.17l1.53-.49-.17.5,2.33-.59-.48-.37c1.19-.16,1.87.52,2.86-.62.42-.58-1.28-.26-.17-.84a44.89,44.89,0,0,0,5.9-1.07c-.37-.48.14-.64.62-.94l.23.45c1.75-1.38,1.11.76,2.89-.48l.11-.78c1.44-1.58,1.32.62,2.83-1.37-.75.37-.75-.9.29-1l-.08.54c.5-.29.61-.54,1-.58-.23.36.07.72.83.35l-.32.76,1.18-1.37c1.32.07,2.91-1.2,3.62-.74,0,0,2.58-.59,2.89-1.49-.34.61,1.08.28.88.93.46-.72,2.2-1.81,3.14-1.57l-.12.11c3-.49,4.5-2.47,7.24-2.74-.31-.5,1.12-.69.54-1.26,2.34-1.63,5.24-.31,5.39-2.8,1.14-.55,1.58,0,2.23-.12l-.24.22A34.43,34.43,0,0,1,128.3,76c.74-.51.51-1.55,2.06-1.85-.33.57.24.28.79.08-.33.19-.38.38.43.38a1.11,1.11,0,0,1,.31-.41s.05,0,.06.09c.86-.47.66-.54.22-.44,0-.07-.06-.13-.24-.19,1.14.16,2.64-1,3-.36,2.7-1.16,4.41-2.59,6.6-3.69.39.26,0,.76-.65,1.14l1.58-.72c.17.51-.83.63-1.29.91,2.23.11,3.69-2.27,6.24-2.35l.33-.57.16,0c-.08-.21.32-.68.63-.87.48.32.35,1,1.46.58,1,.1,2.45-1.13,3.52-1.8-.65.16-.54-.16-.33-.42.56-.22,1,.1,1.41-.25l.27.57c-.42-.48,1.25-1.14,1.37-1.46.48.32-.73.7-.75,1.08l3.35-1.32c1-.89-.42-.48,0-1.21,1-.5,1.9-1.29,3.25-1.38l-.58-.38a10.91,10.91,0,0,1,4.66-1.73,9.43,9.43,0,0,0,2.28-3.09l.35,0a3,3,0,0,0,.94-.25,9.67,9.67,0,0,1,1.26-.4q.61-.14.61-1.3v-.58h.29a3.48,3.48,0,0,0,1.8.86,1.75,1.75,0,0,0,.86-.43,1.75,1.75,0,0,1,.86-.43l.86-.43a6.06,6.06,0,0,1,2.77-1,6.7,6.7,0,0,0,3.77-2.27A3.84,3.84,0,0,0,185,49a6.55,6.55,0,0,1,1.33-1.08l2-1.08a13.79,13.79,0,0,1,1.94-1v.29L188,50.46a19,19,0,0,1-2.41,4.93,4.66,4.66,0,0,0-1.11,1.84v1.3l-.72.43-.57,1.94a2.89,2.89,0,0,1-.93,1.3,2.6,2.6,0,0,1,.14.94.84.84,0,0,1-.14.58l-.72.43-.86,1a9.82,9.82,0,0,1-2.19,3.13A6.38,6.38,0,0,0,177,70a3.42,3.42,0,0,0-.57,1.22V72a1.49,1.49,0,0,1-.79.94,4.88,4.88,0,0,0-1.47,1.73,6.77,6.77,0,0,0-.83,1.58v.72a16.12,16.12,0,0,1-2.23,3.67l-1.58,2.23a12.73,12.73,0,0,0-1.55,2q-.83,1.26-1,1.26a9.13,9.13,0,0,0-4.24,1.08l-3.24,2.16a1.25,1.25,0,0,0-.86-.43A10.6,10.6,0,0,0,154.15,90l-2.23,1.08-2.3.43-3.17,1.73q-1.51.72-2.81,1.29a5.51,5.51,0,0,0-1.87,1.22,2,2,0,0,0-.57,1.37q0,1.15,1.76,3.46T145.7,103a5.72,5.72,0,0,1,1.69.36l.72.29c.19,0,.49.19.9.58a3.77,3.77,0,0,0,2.48.58,4.62,4.62,0,0,1,1.65.65l1-.65a3.29,3.29,0,0,0,1.51.65h1.44a1.73,1.73,0,0,1,.57-.22l1.08.22h.14l4.24-1.66a2.29,2.29,0,0,0,1.36-.29l.57-.58a7.28,7.28,0,0,0,2.33-1.12,4.16,4.16,0,0,1,1-.68q1.87,0,1.87-1.3a1,1,0,0,0-.29-.61,2.9,2.9,0,0,1-.43-.61l1.08.29a2.79,2.79,0,0,0,2.69-1.84q.83-1.84,1.33-2.05a2.59,2.59,0,0,0,.93-.72,7.66,7.66,0,0,1,1.26-1.12,2.28,2.28,0,0,0,1-1.48q.14-.86.43-.86a6.29,6.29,0,0,0,2.67-3.1l.87-.29,1.37.14,2.38-.43a15,15,0,0,0,3.57-1q.9-.47,1-.68l.58.43,1.51-.14,1.58.14,3.81-.58a3.47,3.47,0,0,1,.94.58l1.15-.14a8.7,8.7,0,0,0,3.38.43l1-.43,1.51.58,1-.43h.29l1.08.72h1.3l.58.14h.65q.72,0,1,.94l.43.29h1.51a5.34,5.34,0,0,0,2.3.72,2.49,2.49,0,0,0,1.26.5,1.6,1.6,0,0,1,1,.36,10.09,10.09,0,0,0,1.8,1.08l1.44.29a1.74,1.74,0,0,0,.86.43h2.09l.29.29a2.12,2.12,0,0,0,1,1.55,4.9,4.9,0,0,1,1.4,1.4q4.1,2.66,6.77,2.66,1.08,0,2.16-1.8t1.08-5.76A2.76,2.76,0,0,0,235.41,87.49Zm-22.19-67a5.29,5.29,0,0,0,.68-1.4,15.47,15.47,0,0,1,1.15-2.45,9.43,9.43,0,0,0,1.15-2.88q.07-.83,2.66-4.07t2.95-3.89a5.38,5.38,0,0,1,2.44-1.51,4.76,4.76,0,0,1,.14,1.15q0,2.16-2.12,6t-2.69,4.17L217.49,17a3.86,3.86,0,0,0-.72,1.12,22.22,22.22,0,0,1-3.88,4,.25.25,0,0,1-.29-.29A3.8,3.8,0,0,1,213.22,20.51ZM162.81,93.36a5.67,5.67,0,0,0-.57,1.3A8.5,8.5,0,0,0,160,97a5.29,5.29,0,0,0-1.72.9,13.27,13.27,0,0,1-1.08.83l-1.72-.14a.13.13,0,0,0-.14.14q-1.51,1.08-1.8,1.22l-.57-.29-1.94.14-2-.43a3,3,0,0,1-1.72-.54,6,6,0,0,0-2-.83,1.7,1.7,0,0,0-.29-.43q0-.43.86-.72l2.66-1.22q.57-.22,5.46-1.73l5.31-1.66q.57-.14,4-.43Z"/><path class="cls-1" d="M286.63,26.38Q289,23,289.26,22.89a3.2,3.2,0,0,0,.65-1,14.61,14.61,0,0,1,1.84-2.59,6.16,6.16,0,0,0,1.4-4.07,3.87,3.87,0,0,0,1.66-2.66q0-.86-2.41-4.1t-4.14-3.24a2.72,2.72,0,0,0-2,.72A3.88,3.88,0,0,0,283,8a12.65,12.65,0,0,1-1.26,2.23,2.24,2.24,0,0,0-.5.9,4.83,4.83,0,0,1-.61,1.22,1.87,1.87,0,0,0-.4,1.22l.58,3.53,1,1.44a5.63,5.63,0,0,0,1.37,1.8,6.54,6.54,0,0,1-2.3,3.78,5.15,5.15,0,0,0-2,3.71,7.15,7.15,0,0,0,1.91,1,13.32,13.32,0,0,0,2.12.86Q284.22,29.73,286.63,26.38Z"/><path class="cls-1" d="M482.46,67.81q-1.15-1.73-1.73-2.81-1.66-.57-1.66-.86a13.78,13.78,0,0,1,1.23-1.94,3.09,3.09,0,0,0-1.41-3A17.39,17.39,0,0,0,476.15,58a6.94,6.94,0,0,1-1.48-.61,17.69,17.69,0,0,0-2.81-.94l-2.09-.72a3.3,3.3,0,0,0-1.51.54,8.33,8.33,0,0,1-1.8.79l-1.87.58a5.59,5.59,0,0,1-1.59.32q-1.87,0-5.95,2.05t-4.9,3a5.12,5.12,0,0,1-2.45,1.48,8.17,8.17,0,0,0-2.63,1.3,3.59,3.59,0,0,1-2.24,1.87,10.68,10.68,0,0,0-3,2.7,2.81,2.81,0,0,1-1.66,1.37A4.38,4.38,0,0,0,438,73.67a10.74,10.74,0,0,0-1,1.67,1.53,1.53,0,0,0-.61-.12q-1.36,0-3.91,2.05a11.19,11.19,0,0,0-3,3.09,6.29,6.29,0,0,1-.61,1.19l-1.72-.14a2.29,2.29,0,0,0-1.44,1.83q-.07,1.12-.65,1.12h-.29a4,4,0,0,0-.86-.29s.07,0,.07,0a1.77,1.77,0,0,1-.43.29,5.25,5.25,0,0,1-1.22.47,4.26,4.26,0,0,0-1.22.5,3.45,3.45,0,0,1-.93-1.66l.36-4-.14-1.3q0-.29.86-1.22a2.53,2.53,0,0,0-.61-1.08,2.36,2.36,0,0,1-.61-1.22l.36-1.51V72l-.5-2.23.36-1.66q0-1-1.76-2.84a6,6,0,0,0-4.5-1.83,3.18,3.18,0,0,0-1.44.72,5.06,5.06,0,0,1-1.15.72h-.14l-.65-.29-1.58,1.22a3.23,3.23,0,0,0-1.12.86q-.68.72-1,.72-2.16.65-6.19,5a1.74,1.74,0,0,1-1,1,2.59,2.59,0,0,0-1.19,1c-.31.46-.56.68-.76.68s-.48.19-.86.58l-1,1A5.25,5.25,0,0,0,393.89,78q-.94,0-.94-1.37l.79-3.53-.29-1.8.29-1.73V69a23.78,23.78,0,0,1-.58-3.24l.29-2.45q0-1.51-2.23-3.46t-3.53-1.94a2.25,2.25,0,0,0-1.77.9q-.76.9-.9.9l-1.15-.43a7.66,7.66,0,0,0-2.81,1.44l-2.52,1.8a7.9,7.9,0,0,1-1.94,1.87l-2,.94a6,6,0,0,0-2.23,1.44,9.27,9.27,0,0,1-1.84,1.62A24,24,0,0,0,368,70.47l-.29-.58.15-1.3q0-7.7-3.1-7L360,62.84h-1q-3.75,1.58-4.32,2.45l-.29.5a4.8,4.8,0,0,0-1.12.79,7.09,7.09,0,0,1-1.48,1,15.55,15.55,0,0,0-5.55,4.64,1.1,1.1,0,0,0-.71-.39q-1.22,0-2.37,1.76a5.94,5.94,0,0,1-2.48,2.34,2.35,2.35,0,0,0-1.54,1.55,1.17,1.17,0,0,1-1.29,1l-1.15,1a7,7,0,0,0-1.51,1.8l-.72.29A4.93,4.93,0,0,0,333,83a5.88,5.88,0,0,1-3.34,1.91,2.37,2.37,0,0,1-.5-1.8l.29-2-.14-1.8a2.25,2.25,0,0,1,.61-1.33,2.21,2.21,0,0,0,.61-1.19v-.14l1-3a5.13,5.13,0,0,1,.43-1.3q4.17-4.17,4.17-8.85,0-4-3.09-4-4.32,0-5.65,2.63t-2.05,2.63q-.58,0-.72-1.3-.43-6.19-4.9-6.19a1.6,1.6,0,0,0-.72.14l-1.15.58h-.14a4.49,4.49,0,0,0-1.37-.58h-.43a29.35,29.35,0,0,1-3.82,1.8h-.58a5.68,5.68,0,0,0-2.56.94,20.62,20.62,0,0,1-3.31,1.55,8.4,8.4,0,0,0-3,1.91,7.29,7.29,0,0,1-1.76,1.44,21.78,21.78,0,0,0-5.48,4l-2.16,2.16a8.78,8.78,0,0,0-2.45,2.23,10,10,0,0,1-1.73,2,2.36,2.36,0,0,0-1,1.83l-.72.94a10.32,10.32,0,0,0-1.69,2.27,10.14,10.14,0,0,0-1.26,2.27l.14,1.94q-1.37,0-1.37.86l.14,2.38v.43a3,3,0,0,0-.14,1.15,5.17,5.17,0,0,0,.65,2.81l.72,3q.22,1.51,2.81,2.59A12.07,12.07,0,0,0,291.78,99q2.38,0,8.14-3.81l.43-.43a28.58,28.58,0,0,0,2.52-1.44l5.47-4.46A5.79,5.79,0,0,0,310,87.06a10.59,10.59,0,0,1,.79-1.26l1.37.14.72-.72a2.58,2.58,0,0,1,1.3-.83q.93-.32,1.08-.83l.29-.43a6.29,6.29,0,0,0,1.44-1.3,3.28,3.28,0,0,1,.94-1.8,2.47,2.47,0,0,0,1.76-.72c.5-.48.85-.72,1-.72s.29.14.29.43l-.43,3.53a2.35,2.35,0,0,0,.14.72,2.55,2.55,0,0,1,.14.79.59.59,0,0,1-.14.43.59.59,0,0,0-.14.43,1.25,1.25,0,0,0,.36.72,1.25,1.25,0,0,1,.36.72L321,87.74a3.58,3.58,0,0,0,.65,2.27,3.19,3.19,0,0,1,.72,1.33,1.64,1.64,0,0,0,.5.94,7.68,7.68,0,0,1,2.37.68,5.87,5.87,0,0,0,2.52.54,2.87,2.87,0,0,0,1-.4,12.64,12.64,0,0,1,2.3-.83,5.13,5.13,0,0,0,2.27-1.15l.14-.72a10,10,0,0,0,1.73-.65,3.87,3.87,0,0,1,2.12-1.44,2,2,0,0,0,1.51-1.3A3.27,3.27,0,0,1,341,85.37l.72-1a5.17,5.17,0,0,0,1.69-1.58,3.17,3.17,0,0,1,1.4-1.22l.5-.94.25-1.74c.28.49.58.74.9.74a1.86,1.86,0,0,0,1.37-.43,1.65,1.65,0,0,1,.93-.5,1.14,1.14,0,0,0,.83-.68,4.08,4.08,0,0,1,.68-1q.36-.36,1.47-1.76a5.9,5.9,0,0,1,2.12-1.84,1.79,1.79,0,0,1,1.26-1,4.7,4.7,0,0,0,1.76-1,3.2,3.2,0,0,1,2.16-.68c.38,0,.58.38.58,1.15a1.63,1.63,0,0,1-.36,1.08,2,2,0,0,0-.36,1.3L358,75.8a32.46,32.46,0,0,0-2.81,3.53,33.62,33.62,0,0,1-3.24,4,20.66,20.66,0,0,1-1.76,3.06,4,4,0,0,0-.9,2.27q0,9,4.33,9,2.24,0,2.24-1.15l-.22-1.22q0-.36.83-.83a2.18,2.18,0,0,0,1-.83,21.74,21.74,0,0,1,1.73-2.45Q360.76,89,360.76,89a5.18,5.18,0,0,1,1.88-1.08A11.89,11.89,0,0,0,364,85.8a2.12,2.12,0,0,1,1.4-1.22q.9-.22.9-.86Q366.3,80,368,80l1.37.29.29-.29q1.87-3.09,2.23-3.09h.29q.43.15.43.29c.19,0,.29,0,.29-.14q.57-3,2.08-3.67,1.44-1.29,2.3-2.23a20.44,20.44,0,0,1,3.34-2.59,10.37,10.37,0,0,1,3-1.66c.1,0,.28.18.54.54a1.72,1.72,0,0,1,.4.76l-.29,2.23.14,2.52-.29,1.15.43,2.09a5.44,5.44,0,0,0-.58,1.15v.36a1.11,1.11,0,0,1,.14.43v2.16a13.26,13.26,0,0,0-.58,1.66v.29a5.49,5.49,0,0,1,.58,1.15l-.29,2.66a11.9,11.9,0,0,0,1.73,5q1.73,3.24,3,3.24t4.32-3.67l.43-.79a11.33,11.33,0,0,0,1-1.58l.86-.43a4.25,4.25,0,0,1,1.37-1.51l.87-1.73a2.47,2.47,0,0,1,1-.14,9.2,9.2,0,0,1,2.67-3q1.08-.58,1.08-1.22l-.14-.58v-.29a1.6,1.6,0,0,1,.86-1.3,2.31,2.31,0,0,0,.58.14c.19,0,.44-.23.76-.68a5.19,5.19,0,0,1,1.77-1.4,4.23,4.23,0,0,1,1.62-2.05,3.45,3.45,0,0,0,1.26-.9q.5-.58.79-.58,1,0,1,.86l-.43,3.67.14.79-.29,1.29.14,2.52a3.42,3.42,0,0,1-.14.94,3.4,3.4,0,0,0-.14.94q0,.94,1.65,3.1c0,.14-.13.34-.4.58s-.39.41-.39.5q0,2.81,1.19,3.81a14.77,14.77,0,0,1,1.83,1.8A6.39,6.39,0,0,0,416.33,95a8.53,8.53,0,0,0,2.59.76q1.65,0,4.06-2.63a33.06,33.06,0,0,1,2.84-2.92l1.51-.94a2,2,0,0,1,1-.43q.72-.14,1.26-1.26t.68-1.12l1.44.14.29-.29a10.59,10.59,0,0,1,3.56-4,5.14,5.14,0,0,0,2.26-2.48,2,2,0,0,0,.66.11,1.78,1.78,0,0,0,1.74-1.33,7.5,7.5,0,0,1,.65-1.48l.87.29q.58,0,.83-.79a1.42,1.42,0,0,1,1-1,2.94,2.94,0,0,0,1.44-1.3q.72.58.58.94l-1.73,5.76v2.3a4.71,4.71,0,0,1-.72,1.22l.14,1.58-.14,1.37v.29a8.87,8.87,0,0,0,1.15,3.6,8.45,8.45,0,0,0,2.38,3.17l1,.86a3,3,0,0,0,1.12,1,5.35,5.35,0,0,1,1.48,1.3,2.47,2.47,0,0,0,1.55,1,2.36,2.36,0,0,1,1.4.68,1.86,1.86,0,0,0,1.23.61,4.09,4.09,0,0,0,1.22-.43l1.15.14q2.23,0,2.81-.54a2.37,2.37,0,0,1,1.48-.61,5.42,5.42,0,0,0,2-.65,10.19,10.19,0,0,1,1.91-.79,9.59,9.59,0,0,0,2.59-1.58l.72.14q.43,0,1.48-1.29t1.76-1.3a.83.83,0,0,1,.58.29l3.39-3a2,2,0,0,0,.83-.68,2.57,2.57,0,0,1,.83-.75,1.62,1.62,0,0,0,.72-1.15,2.53,2.53,0,0,1,.72-1.37,5.41,5.41,0,0,0,1-1.62,12.47,12.47,0,0,1,.61-1.26l.43-.58a1.33,1.33,0,0,1,.65-.72,1.78,1.78,0,0,0,.72-1.22l.58-2-.22-1.44q0-.22.79-.94l.14-.58-.14-5.9Zm-162.26,4a37.63,37.63,0,0,1-3.92,3.6,3.53,3.53,0,0,1-1.76,1.69,3.36,3.36,0,0,0-1.76,2.41,3.69,3.69,0,0,0-1.44,1,5.35,5.35,0,0,1-1.94,1.22l-1.51,1.15q-2.74,1.51-4,2.23a3.53,3.53,0,0,1-1.44,1.26,4.6,4.6,0,0,0-1.3.86,1.37,1.37,0,0,1-.72.47,1.26,1.26,0,0,0-.65.36l-1.37.72a3.14,3.14,0,0,0-1.15.58,9.48,9.48,0,0,1-2.12,1,8.59,8.59,0,0,1-2.41.76q-1.37,0-1.37-3.53a2.78,2.78,0,0,1,.83-1.55,4,4,0,0,0,1-2.16,1.65,1.65,0,0,1,1-1.51,4.62,4.62,0,0,0,1.44-.83l.5-1.22q0-.22,1.87-1.73a3.33,3.33,0,0,1,2.23-2.52q2.88-2,3.38-3.09a5.73,5.73,0,0,0,2.74-1.4,11.54,11.54,0,0,1,4.21-2,14.3,14.3,0,0,0,3.17-1,4,4,0,0,1,2-.47l1.44.29.94-.14,1,.5,1.37-.14,1.3.14.58-.36h.14c.19,0,.29.07.29.22Q322.76,69.17,320.2,71.76Zm117.12,6h0Zm36.07-5a2.64,2.64,0,0,1,1.55,2.38,12.89,12.89,0,0,1-.43,2.81l-1.36,2.59a1.53,1.53,0,0,1-.29,1.08l-.57.86A3,3,0,0,1,471.21,84a5.29,5.29,0,0,0-1.4,1.8,4.41,4.41,0,0,1-2.08,1.91,2.46,2.46,0,0,0-1.47,2.38l-.29.14h-1q-.15,0-.68,1.08t-1.33,1.08a3.82,3.82,0,0,0-2.12,1.12,5.35,5.35,0,0,1-3.56,1.12,12,12,0,0,1-2.16-.29l-.36-.14h-1.15l-.14-.14-.29-1.66-.72-2.3.29-2.66.29-.94a1.66,1.66,0,0,0-.5-.86c-.34-.38-.5-.62-.5-.72a1.38,1.38,0,0,1,.76-1.19,2.55,2.55,0,0,0,1-.9,8.17,8.17,0,0,1,.79-2.81l1.29-3.24q1.15-1.15,1.87-2l.79-.94a3,3,0,0,0,1.44-2.37l.86-.86a2.51,2.51,0,0,0,2-.94q.79-.93.93-.94h.93a3.81,3.81,0,0,0,.86-1.22q.43-.86.86-.86a11.65,11.65,0,0,1,1.65.72q4.6-1.66,5.1-2.66a9.22,9.22,0,0,1,1.65-.58.38.38,0,0,1,.43.43q0,.29-1.69,1.69a4,4,0,0,0-1.69,3.06Q471.85,71.84,473.4,72.7Z"/><path class="cls-1" d="M622.74,58.24c-.07-.08-.15-.18-.23-.27C622.51,58.07,622.56,58.18,622.74,58.24Z"/><path class="cls-1" d="M742.81,99l.13,0C742.85,99,742.82,99,742.81,99Z"/><path class="cls-1" d="M621.08,58.95v-.28c0-.08,0-.15-.07-.22l0,0A.28.28,0,0,0,621.08,58.95Z"/><path class="cls-1" d="M783.74,87.46A6.52,6.52,0,0,0,781.19,89a22.81,22.81,0,0,1-5.5,3.22l0-.23c-2.62,1.63-4.41,2.33-6.15,4.09-.73-.91-2.59.84-3.49.68l0-.11a3.46,3.46,0,0,1-1.43.67,10.5,10.5,0,0,1-1.59.15,6.26,6.26,0,0,0-3.07.53c.06-.1.06-.42.51-.5-1.41.37-3.39.83-3.56.17-.87.12-1.81.21-2.82.26s-2.06.08-3.07.14a17.43,17.43,0,0,0-5,.88l.16-.18c-1.34.69-1.72.07-3.22.4-.08-.09-.18-.14-.17-.17a6.54,6.54,0,0,1-2.83.3,13.89,13.89,0,0,0-2.61-.11l0-.45-2.9-.1,1.07.17c-.47,1.18-2.13-.88-4.28-.31-1.93-.37-4.27,2.08-6.26,1.25-1.05.46,1-.82-.54-.56,0-.63.73-.32.43-.86-1.47.1-2.24-1-4.05-.84V97a5.77,5.77,0,0,1-3.21-.37,4.06,4.06,0,0,0-2.63-.4c-2.42,0-1.29-1.75-3.91-1.26l-.81-.84c-1-.33-.91.64-2,.07.16-.4-1.38-.66-.62-.9a11.28,11.28,0,0,0-4-.83A10.11,10.11,0,0,1,699,91.07c-.94.61-2.53-.3-3.24.15,0-.35-3.39-1-1.28-1.22.18,0,.47.08.41.21l.36-.41c-1.67-1.44-3.63-.51-5.49-1.19.52.32,1.28.49.69.67l-1.75-.57.48-.29c-.86-.32-1.71-.67-2.56-1l.21.6c-1.21-.65-1.4-1.62-3.06-1.37-.78.18,1,1-.39.76-1.62-.85-4-2.18-6.15-3.06,0,.61-.56.4-1.2.31l.09-.5c-2.53-.12-.5-1.31-3-1.57l.31-.26-.94.77c-2.39.21-.77-1.36-3.51-.89.93.24.06,1.19-1,.59l.44-.35c-.65-.12-.93,0-1.3-.24.46-.12.43-.59-.51-.83l.81-.35-2,.22c-1.15-1-3.46-1.12-3.77-2,0,0-2.73-1.34-3.63-.9.73-.22-.77-1-.14-1.31-.92.21-3.24-.2-3.91-1h.19c-3-1.73-5.77-1.37-8.4-3.11-.08.59-1.48-.29-1.38.54-3.25-.48-4.89-3.51-6.79-1.8-1.39-.41-1.38-1.12-2-1.5l.35,0a27.31,27.31,0,0,1-3.6-1.38,20.13,20.13,0,0,0,.33-2.24,22.15,22.15,0,0,0,0-3.49A18.27,18.27,0,0,0,632,59a13.56,13.56,0,0,0-1.16-3.07,12.07,12.07,0,0,0-.84-1.36,11.25,11.25,0,0,0-1.07-1.26,9.87,9.87,0,0,0-5.23-2.82,10.31,10.31,0,0,0-5.77.49,9.07,9.07,0,0,0-3.05,2,8.67,8.67,0,0,0-2.19,4l-.27,1.12.19.93c.15.73.31,1.53.56,2.36a16.3,16.3,0,0,0,1.09,2.56,16.57,16.57,0,0,0,1.54,2.65,1.53,1.53,0,0,0-.46-.22,1.29,1.29,0,0,0-.93.12,7.72,7.72,0,0,0-.71,1,6.06,6.06,0,0,0-.44,1.47,6.71,6.71,0,0,0,.34,3.39,8.21,8.21,0,0,0,1,2c-.11.15-.21.31-.32.49A8.58,8.58,0,0,1,613,76.8a8.18,8.18,0,0,0-2.37,1.51,29.09,29.09,0,0,1-3.89,3.46,16.22,16.22,0,0,0-2.2,1.69,6.54,6.54,0,0,1-2.09,1.33,8.09,8.09,0,0,0-2.27,1.4,7.54,7.54,0,0,1-2.41,1.4,10.07,10.07,0,0,0-2.16,1,6.82,6.82,0,0,1-2.09.86,4.52,4.52,0,0,0-1.76.76,2.07,2.07,0,0,1-.72.47l-1-.29a5.43,5.43,0,0,1-1.08.43q-2.81,0-2.81-1.08a2.17,2.17,0,0,1,.54-1.15,5.43,5.43,0,0,0,.83-1.62,3.14,3.14,0,0,1,.58-1.19l.58-.86a10.88,10.88,0,0,1,.9-1.66,1.41,1.41,0,0,0,.32-.58v-1.3q0-.58,1.44-1.08a14.6,14.6,0,0,0,1.51-2.59l.72-.5q3.81-4.89,4.82-5.4a7.25,7.25,0,0,0,1.22-3.89,18.55,18.55,0,0,0-1-3.81A27.83,27.83,0,0,0,597,60L596.55,59q-.29-5.25-4.61-5.25a8.65,8.65,0,0,0-6.33,2.66,4.05,4.05,0,0,1-1.08,1,1.56,1.56,0,0,0-.65.58,18.93,18.93,0,0,1-5,4l-.43.94-1.08.29-.86,1a7.63,7.63,0,0,0-3.2,2.2,8.14,8.14,0,0,1-2.59,2.09,2.38,2.38,0,0,0-1.4,1.19,1.6,1.6,0,0,1-1.44.86q-1.15.14-3.63,2.22a31.6,31.6,0,0,0-2.58,1.88q-2.76,2.16-2.83,3.89a2.24,2.24,0,0,1-1.33.36,2.3,2.3,0,0,0-1.76,1.12,3.19,3.19,0,0,1-1.43,1.3q-.72.25-2.8,3.42l-.65-.14a9.81,9.81,0,0,0-3.05,1.58,2.1,2.1,0,0,1-1.19.72q-.58,0-.58-1.73v-.29c0-.19.19-.36.58-.5s.6-.68.65-1.62a44.2,44.2,0,0,1,2.16-7.59q3.24-5.9,3.24-8a3.11,3.11,0,0,0-1.48-3,9.1,9.1,0,0,1-2.73-2.34,4,4,0,0,0-3.27-1.55,6.7,6.7,0,0,0-2.91.47,38.92,38.92,0,0,0-4.64,3.78,1.81,1.81,0,0,1-1,.86l-1.65,1.37a5.59,5.59,0,0,1-1.48,1.69A5.14,5.14,0,0,0,532,70.18q-.72.15-.72.43a4.74,4.74,0,0,0-1.94,2.81,9.11,9.11,0,0,1-1.44.43l-.57.72-4.17,3.74-1.73.86a6.35,6.35,0,0,0-.29,1.15,5.29,5.29,0,0,1-1.37.29c-.1,0-.31.21-.65.61a7.35,7.35,0,0,1-.94,1,19.34,19.34,0,0,0-1.44,1.44,5.36,5.36,0,0,1-2.16,1.48,3.08,3.08,0,0,0-1.51.9,3.79,3.79,0,0,1-1.11,1,10.91,10.91,0,0,0-1.19.83,1.35,1.35,0,0,1-.86.36q-.58,0-.58-1.37a14,14,0,0,1,1.22-3.71,21.19,21.19,0,0,1,1.87-3.78v-1.8l.43-.43,1-.14q.29-.43.94-1.58A2.5,2.5,0,0,0,516,74l1.22-2.66V69.89l.36-.29a1.69,1.69,0,0,0,1.58-1.8,8.48,8.48,0,0,0-2.52-5.51q-2.52-2.84-3.17-2.63a12.09,12.09,0,0,0-1.3.29l-2.46.65a2.13,2.13,0,0,0-1.63.65,1.66,1.66,0,0,1-1,.65h-.29a24.13,24.13,0,0,0-2,2.23,1.08,1.08,0,0,1-.83.58,2,2,0,0,1-.87-.14l-1.23.72q-1.16,1.94-1.88,1.94h-.58A3,3,0,0,0,498,69.32l-1-.43a2.87,2.87,0,0,0-2.39,1.55A6.38,6.38,0,0,1,493.47,72q-.58.43-.58.58v1.29l-.51,2.81q0,.5,1,1a4.25,4.25,0,0,0,1.3.5q.43,0,2-1.66l.87-.14a4.75,4.75,0,0,0,.72-1.44c.1,0,.29.14.58.43h.22q.43-.29,1.16-.68a2.82,2.82,0,0,0,1-.83,1.45,1.45,0,0,1,.94-.58l1-.43a3.15,3.15,0,0,1,.86-.43.26.26,0,0,1,.29.29,4,4,0,0,1-1.15,2.09,2,2,0,0,1-.14.86q-.58-.36-1.76,2.41a20.52,20.52,0,0,1-1.94,3.78,6.78,6.78,0,0,0-.76,3.82,4.4,4.4,0,0,0,.54,2.45,12.19,12.19,0,0,1,.68,1.08Q503.74,97,510,97q.86,0,3-2.23t3.35-2.23q1.08-.5,1.8-2.81l1.3.14.58-.72a4.68,4.68,0,0,0,2.23-3.24h1.15l1.23-1.15a6,6,0,0,0,1.48-1.4,6.08,6.08,0,0,1,2.05-1.55l.43-1.8,1.22.14,1-.58a2.26,2.26,0,0,1,.43-.58q.72.07,2.09-2.37a2.89,2.89,0,0,0,2.56-1.76,5.11,5.11,0,0,1,2.27-2.34l-.29,2.38a8,8,0,0,0,.14,1.58l-1,1.66a1.7,1.7,0,0,1-.29.43l.14,2.81a9,9,0,0,1-.68,1.12,3.39,3.39,0,0,0-.68,1.55l.14,1.73-.43,2.52a28.23,28.23,0,0,0,2.12,2.84,34.17,34.17,0,0,0,2.73,3.24,16.42,16.42,0,0,1,1.29,1.3q.68.76,1.11.76a3.47,3.47,0,0,0,2.95-1.22l1.29-1.66q.5-.65.72-.65l1.51-.22,1.15-1.15a6.7,6.7,0,0,1,2.12-2.05A8.42,8.42,0,0,0,554.07,88q.47-.58.61-.58a3.16,3.16,0,0,1,.86.43l1.29-1.08a3.39,3.39,0,0,0,1.08-.58l.29-.43q1.15-1.15,2.62-2.92t2-1.91s.16,0,.32-.29.35-.47.57-.73l.18,0,1.16.13a4,4,0,0,0,1.29-1.87,1.26,1.26,0,0,0,.76-.57l.9-.22a5.7,5.7,0,0,1,1.51-.58,18.84,18.84,0,0,1,1.73-2,1.92,1.92,0,0,0,1.66-.79,4.29,4.29,0,0,1,.72-.86q2.23-.57,2.66-.72t1-1.51l1.22-.58a5.29,5.29,0,0,1,2.05-1.69,5.87,5.87,0,0,0,1.55-.9,8.19,8.19,0,0,1,1.91-1.08,4.33,4.33,0,0,0,2-1.48q.43-.76.79-.76,1.87,0,1.87,2.09a3.91,3.91,0,0,1-.58,1.3q-.43.15-.72,1.12A3.89,3.89,0,0,1,587,70l-.94,1.3a6.58,6.58,0,0,1-1.22,2.3,34.15,34.15,0,0,0-2.88,5.11,6.7,6.7,0,0,1-1.12,2.7A3.63,3.63,0,0,0,580,83a14.79,14.79,0,0,1-.72,2.2,14.9,14.9,0,0,0-.58,4.93,5.48,5.48,0,0,0,.79,2.05,20.63,20.63,0,0,1,1.3,2.92q.5,1.44,3.06,2.88t2.63,1.44l2.09-.14,1.15-.36a3.5,3.5,0,0,1,1.08.5l1.73-.94L594.6,98q3.81-2.66,4.61-2.66,1.15,0,1.15-1v-.14l-.43-.72q0-.65.86-.65h.29l.43.14a4.66,4.66,0,0,0,1.08-.58l.29-.72q.14-1,.57-1A1.5,1.5,0,0,1,604,91a1.47,1.47,0,0,0,.58.29q.29,0,1.12-.9a24.1,24.1,0,0,1,3.06-2.55,31.8,31.8,0,0,0,3.46-2.88,5.76,5.76,0,0,1,1.91-1.44q.68-.22,1.12-1.8a1.65,1.65,0,0,0,1.37-1.19,3.21,3.21,0,0,1,.76-1.48q.54-.57.54-.86a1.18,1.18,0,0,0-.14-.65l0-.2a8.75,8.75,0,0,0,7.26.8,10.29,10.29,0,0,0,3.71-2.23l.05-.05a7.59,7.59,0,0,0,2.5.8l.59.77a4,4,0,0,1,2.24.75l-.09.11a23.57,23.57,0,0,1,2.72.71l-.09.11,1.22.41-.28.11a18.08,18.08,0,0,1,5.14,1.74l.08-.59c3.12,1.89,4.77,1.25,7.53,3.11l-.09.12c4.37,0,5.7,3.27,10.19,3.35-.56,0,.11.36,0,.48,1.89.51,3.87,1.14,4.29.07,1.33.48,1,.72,1,1.19.16-.47,1.39-.26,2.45.07h-.55l3.05.89L670.4,89c1.5.81,0,1.24,1.63,1.54l.23-.75c2.16.88,3.08,2.43,5.06,3.69,8.89,3.24,19.14,4.06,27.39,7.32l.25.66c0,.88,2.64-.7,2.8.14.36-.06.72-.1,1.08-.17.25.2.82.48.27.57a2.85,2.85,0,0,0,1.7,0l.9.71a21.92,21.92,0,0,0,5.3.85,34.74,34.74,0,0,1,5.5.56c2.26.91,5.69,1.25,9.16,1.47,1.75,0,3.51,0,5.15,0l2.36-.08,2.1-.18a23.94,23.94,0,0,1,5.61-.1c1.92.09,3.89.28,5.87.49,3.93.45,8.28.5,12-1.06.28.06.86-.35.83-.44a41.22,41.22,0,0,0,7-2.1,11.41,11.41,0,0,0,1.37-.61c.42-.21.93-.45,1.49-.76l1.8-1.11c.63-.44,1.27-.95,1.93-1.45s1.26-1.17,1.85-1.78a24.42,24.42,0,0,0,1.58-2,18,18,0,0,0,1.16-2.09c.28-.7.51-1.35.68-1.92a7.93,7.93,0,0,0,.16-1.55C784.54,87.84,784.27,87.41,783.74,87.46ZM621.13,59.58c-.1-.24-.23-.47-.32-.72l-.23-.76c.25,0,.36.13.44.35l.08-.08v.3a1.92,1.92,0,0,0,.25.65,5.05,5.05,0,0,0,0-1.05.93.93,0,0,1,.85,0,2.5,2.5,0,0,1,.3-.41l.08.07c0-.22.42-.49.7-.47.07.52-.33,1,.21,1.24.09.33.28.43.65.68a4.08,4.08,0,0,1,1.11,1.11c-.1-.54.19-.48.43-.3.2.5-.2.91.08,1.28l-.61.16c.27-.15.5.15.66.56a5.34,5.34,0,0,0,.38,1c-.45.33-.42-.89-.81-1a10.3,10.3,0,0,1,.08,1.65,12.14,12.14,0,0,1-.1,1.27c-.36-.33-.6-.63-.43-.9A30,30,0,0,1,622,61.77a8.35,8.35,0,0,1-2-2.85C620.34,58.58,620.76,59,621.13,59.58Zm-1.68,12.32a6.13,6.13,0,0,1-2-1.31,5,5,0,0,1-1.07-1.7,7,7,0,0,1-.3-1.46c0-.16,0-.3,0-.43a20.3,20.3,0,0,0,2.7,3,25.76,25.76,0,0,0,2.7,2.14A3.82,3.82,0,0,1,619.45,71.89Z"/><path class="cls-1" d="M148.43,68.05l-.54-.05C147.94,68.1,148.08,68.15,148.43,68.05Z"/><path class="cls-1" d="M31,107.54l-.12.06C31,107.58,31,107.56,31,107.54Z"/><path class="cls-1" d="M128,67.18h0l.1-.1Z"/><polygon class="cls-1" points="92.46 90.71 92.46 90.71 92.4 91.1 92.46 90.71"/></g></g></svg>